# xmcd
#
# Track frame offsets:
#	150
#	20868
#	41612
#	64028
#
# Disc length: 1166 seconds
#
# Revision: 0
# Processed by: cddbd v1.5.2PL0 Copyright (c) Steve Scherf et al.
# Submitted via: audiograbber 1.83.01
#
DISCID=31048c04
DTITLE=Kilt - MMVII
DYEAR=2007
DGENRE=Metal
TTITLE0=Black Wings
TTITLE1=Drown in the masses
TTITLE2=Unnamed
TTITLE3=Useless words
EXTD=
EXTT0=
EXTT1=
EXTT2=
EXTT3=
PLAYORDER=
